<svg width="199" height="70" viewBox="0 0 199 70" fill="none" xmlns="http://www.w3.org/2000/svg">
<path d="M8.32861 25.5752V34.5H1.9873V8.19531H12.4839C14.4953 8.19531 16.2718 8.56868 17.8135 9.31543C19.3672 10.0501 20.5656 11.104 21.4087 12.4771C22.2638 13.8381 22.6914 15.3857 22.6914 17.1201C22.6914 19.6855 21.77 21.7391 19.9272 23.2808C18.0965 24.8104 15.5793 25.5752 12.3755 25.5752H8.32861ZM8.32861 20.6792H12.4839C13.7124 20.6792 14.6458 20.3721 15.2842 19.7578C15.9346 19.1436 16.2598 18.2764 16.2598 17.1562C16.2598 15.9277 15.9285 14.9461 15.2661 14.2114C14.6037 13.4767 13.7004 13.1034 12.5562 13.0913H8.32861V20.6792ZM48.3638 21.8896C48.3638 24.4551 47.888 26.7254 46.9365 28.7007C45.985 30.6759 44.63 32.1995 42.8716 33.2715C41.1252 34.3314 39.1318 34.8613 36.8916 34.8613C34.6514 34.8613 32.6641 34.3494 30.9297 33.3257C29.1953 32.2899 27.8403 30.8145 26.8647 28.8994C25.9012 26.9844 25.3953 24.7863 25.3472 22.3052V20.8237C25.3472 18.2463 25.8169 15.9759 26.7563 14.0127C27.7078 12.0374 29.0628 10.5138 30.8213 9.44189C32.5918 8.36995 34.6032 7.83398 36.8555 7.83398C39.0837 7.83398 41.071 8.36393 42.8174 9.42383C44.5638 10.4837 45.9188 11.9953 46.8823 13.9585C47.8579 15.9097 48.3517 18.1499 48.3638 20.6792V21.8896ZM41.9141 20.7876C41.9141 18.174 41.4744 16.1927 40.5952 14.8438C39.728 13.4827 38.4814 12.8022 36.8555 12.8022C33.6758 12.8022 31.9956 15.187 31.8149 19.9565L31.7969 21.8896C31.7969 24.4671 32.2244 26.4484 33.0796 27.8335C33.9347 29.2186 35.2054 29.9111 36.8916 29.9111C38.4935 29.9111 39.728 29.2306 40.5952 27.8696C41.4624 26.5086 41.902 24.5514 41.9141 21.998V20.7876ZM61.4077 25.2139H57.9751V34.5H51.6338V8.19531H61.9858C65.1053 8.19531 67.5443 8.88786 69.3027 10.2729C71.0612 11.658 71.9404 13.6152 71.9404 16.1445C71.9404 17.9753 71.5671 19.4928 70.8203 20.6973C70.0856 21.9017 68.9294 22.8773 67.3516 23.624L72.8438 34.229V34.5H66.0508L61.4077 25.2139ZM57.9751 20.3179H61.9858C63.1903 20.3179 64.0936 20.0047 64.6958 19.3784C65.3101 18.7401 65.6172 17.8548 65.6172 16.7227C65.6172 15.5905 65.3101 14.7052 64.6958 14.0669C64.0815 13.4165 63.1782 13.0913 61.9858 13.0913H57.9751V20.3179ZM95.5171 13.0913H87.6221V34.5H81.2808V13.0913H73.5303V8.19531H95.5171V13.0913ZM114.776 24.0215H104.55V34.5H98.209V8.19531H115.806V13.0913H104.55V19.1436H114.776V24.0215ZM140.719 21.8896C140.719 24.4551 140.243 26.7254 139.292 28.7007C138.34 30.6759 136.986 32.1995 135.227 33.2715C133.481 34.3314 131.487 34.8613 129.247 34.8613C127.007 34.8613 125.02 34.3494 123.285 33.3257C121.551 32.2899 120.196 30.8145 119.22 28.8994C118.257 26.9844 117.751 24.7863 117.703 22.3052V20.8237C117.703 18.2463 118.172 15.9759 119.112 14.0127C120.063 12.0374 121.418 10.5138 123.177 9.44189C124.947 8.36995 126.959 7.83398 129.211 7.83398C131.439 7.83398 133.426 8.36393 135.173 9.42383C136.919 10.4837 138.274 11.9953 139.238 13.9585C140.213 15.9097 140.707 18.1499 140.719 20.6792V21.8896ZM134.27 20.7876C134.27 18.174 133.83 16.1927 132.951 14.8438C132.083 13.4827 130.837 12.8022 129.211 12.8022C126.031 12.8022 124.351 15.187 124.17 19.9565L124.152 21.8896C124.152 24.4671 124.58 26.4484 125.435 27.8335C126.29 29.2186 127.561 29.9111 129.247 29.9111C130.849 29.9111 132.083 29.2306 132.951 27.8696C133.818 26.5086 134.257 24.5514 134.27 21.998V20.7876ZM150.331 29.6221H161.369V34.5H143.989V8.19531H150.331V29.6221ZM170.8 34.5H164.477V8.19531H170.8V34.5ZM197.484 21.8896C197.484 24.4551 197.008 26.7254 196.057 28.7007C195.105 30.6759 193.75 32.1995 191.992 33.2715C190.245 34.3314 188.252 34.8613 186.012 34.8613C183.771 34.8613 181.784 34.3494 180.05 33.3257C178.315 32.2899 176.96 30.8145 175.985 28.8994C175.021 26.9844 174.515 24.7863 174.467 22.3052V20.8237C174.467 18.2463 174.937 15.9759 175.876 14.0127C176.828 12.0374 178.183 10.5138 179.941 9.44189C181.712 8.36995 183.723 7.83398 185.976 7.83398C188.204 7.83398 190.191 8.36393 191.938 9.42383C193.684 10.4837 195.039 11.9953 196.002 13.9585C196.978 15.9097 197.472 18.1499 197.484 20.6792V21.8896ZM191.034 20.7876C191.034 18.174 190.595 16.1927 189.715 14.8438C188.848 13.4827 187.602 12.8022 185.976 12.8022C182.796 12.8022 181.116 15.187 180.935 19.9565L180.917 21.8896C180.917 24.4671 181.345 26.4484 182.2 27.8335C183.055 29.2186 184.326 29.9111 186.012 29.9111C187.614 29.9111 188.848 29.2306 189.715 27.8696C190.583 26.5086 191.022 24.5514 191.034 21.998V20.7876Z" fill="#21253D"/>
<path d="M6.13379 48.8594L9.625 59.7412L13.1055 48.8594H18.0684V64.5H14.2871V60.8477L14.6523 53.3711L10.8711 64.5H8.37891L4.58691 53.3604L4.95215 60.8477V64.5H1.18164V48.8594H6.13379ZM24.4922 64.5H20.7324V48.8594H24.4922V64.5ZM32.4307 58.6777L30.8838 60.375V64.5H27.1133V48.8594H30.8838V55.7559L32.1943 53.7686L35.5674 48.8594H40.2295L34.9443 55.7773L40.2295 64.5H35.7607L32.4307 58.6777ZM50.0693 61.5781H44.9023L44 64.5H39.9717L45.708 48.8594H49.2529L55.0322 64.5H50.9824L50.0693 61.5781ZM45.8047 58.667H49.167L47.4805 53.2422L45.8047 58.667ZM65.8818 57.8721H59.9521V61.5996H66.9561V64.5H56.1816V48.8594H66.9775V51.7705H59.9521V55.0684H65.8818V57.8721ZM72.2627 61.5996H78.8262V64.5H68.4922V48.8594H72.2627V61.5996ZM85.8945 64.5V48.8594H90.9326C92.3148 48.8594 93.5573 49.1745 94.6602 49.8047C95.763 50.4277 96.6224 51.3122 97.2383 52.458C97.8613 53.5967 98.1764 54.875 98.1836 56.293V57.0127C98.1836 58.445 97.8792 59.7305 97.2705 60.8691C96.6689 62.0007 95.8167 62.8887 94.7139 63.5332C93.6182 64.1706 92.3936 64.4928 91.04 64.5H85.8945ZM89.665 51.7705V61.5996H90.9756C92.057 61.5996 92.8877 61.2165 93.4678 60.4502C94.0479 59.6768 94.3379 58.5309 94.3379 57.0127V56.3359C94.3379 54.8249 94.0479 53.6862 93.4678 52.9199C92.8877 52.1536 92.0426 51.7705 90.9326 51.7705H89.665ZM108.765 61.5781H103.598L102.695 64.5H98.667L104.403 48.8594H107.948L113.728 64.5H109.678L108.765 61.5781ZM104.5 58.667H107.862L106.176 53.2422L104.5 58.667ZM127.95 64.5H124.201V57.9688H118.647V64.5H114.877V48.8594H118.647V55.0684H124.201V48.8594H127.95V64.5ZM134.116 61.5996H140.68V64.5H130.346V48.8594H134.116V61.5996ZM154.387 62.5664C153.807 63.2109 152.958 63.7301 151.841 64.124C150.724 64.5179 149.499 64.7148 148.167 64.7148C146.119 64.7148 144.482 64.0882 143.258 62.835C142.033 61.5817 141.378 59.8379 141.292 57.6035L141.281 56.25C141.281 54.7103 141.553 53.3675 142.098 52.2217C142.642 51.0687 143.419 50.1842 144.429 49.5684C145.446 48.9453 146.62 48.6338 147.952 48.6338C149.9 48.6338 151.411 49.0814 152.485 49.9766C153.567 50.8646 154.197 52.193 154.376 53.9619H150.745C150.616 53.0882 150.337 52.4652 149.907 52.0928C149.478 51.7204 148.869 51.5342 148.081 51.5342C147.136 51.5342 146.405 51.9352 145.89 52.7373C145.374 53.5394 145.113 54.6852 145.105 56.1748V57.1201C145.105 58.6813 145.37 59.8558 145.9 60.6436C146.438 61.4242 147.279 61.8145 148.425 61.8145C149.406 61.8145 150.136 61.596 150.616 61.1592V58.7314H147.995V56.1426H154.387V62.5664ZM162.39 58.9785H160.349V64.5H156.578V48.8594H162.733C164.588 48.8594 166.038 49.2712 167.084 50.0947C168.13 50.9183 168.652 52.082 168.652 53.5859C168.652 54.6745 168.43 55.5768 167.986 56.293C167.549 57.0091 166.862 57.5892 165.924 58.0332L169.189 64.3389V64.5H165.15L162.39 58.9785ZM160.349 56.0674H162.733C163.45 56.0674 163.987 55.8812 164.345 55.5088C164.71 55.1292 164.893 54.6029 164.893 53.9297C164.893 53.2565 164.71 52.7301 164.345 52.3506C163.979 51.9639 163.442 51.7705 162.733 51.7705H160.349V56.0674ZM180.63 57.8721H174.7V61.5996H181.704V64.5H170.93V48.8594H181.726V51.7705H174.7V55.0684H180.63V57.8721ZM196.303 64.5H192.554L187.011 54.7676V64.5H183.24V48.8594H187.011L192.543 58.5918V48.8594H196.303V64.5Z" fill="#21253D"/>
</svg>
