<svg width="1024" height="99" viewBox="0 0 1024 99" fill="none" preserveAspectRatio="none" xmlns="http://www.w3.org/2000/svg">
<path fill-rule="evenodd" clip-rule="evenodd" d="M1024 0L981.333 11.9787C938.667 23.9574 853.333 47.9149 768 59.8936C682.667 71.8723 597.333 71.8723 512 59.8936C426.667 47.9149 341.333 23.9574 256 26.9521C170.667 29.9468 85.3333 59.8936 42.6666 74.867L-5.34058e-05 89.8404V100.0H42.6666C85.3333 100.0 170.667 100.0 256 100.0C341.333 100.0 426.667 100.0 512 100.0C597.333 100.0 682.667 100.0 768 100.0C853.333 100.0 938.667 100.0 981.333 100.0H1024V0Z" fill="#4151B5"/>
<path fill-rule="evenodd" clip-rule="evenodd" d="M1024 44.5741L981.333 53.2293C938.667 61.8845 853.333 79.1948 768 82.0799C682.667 84.9649 597.333 73.4247 512 64.7695C426.667 56.1144 341.333 50.3442 256 56.1144C170.667 61.8845 85.3333 79.1948 42.6666 87.85L-5.34058e-05 96.5051V100.0H42.6666C85.3333 100.0 170.667 100.0 256 100.0C341.333 100.0 426.667 100.0 512 100.0C597.333 100.0 682.667 100.0 768 100.0C853.333 100.0 938.667 100.0 981.333 100.0H1024V44.5741Z" fill="#21253D"/>
</svg>
